<svg xmlns="http://www.w3.org/2000/svg" width="73" height="72" viewBox="0 0 73 72" fill="none">
<path d="M 36.41,71.88 C 56.38,71.88 72.5,55.25 72.5,36.12 C 72.5,16.41 56.69,0.12 36.41,0.12 C 16.12,0.12 0.53,16.31 0.53,36.12 C 0.53,55.35 16.22,71.88 36.41,71.88 Z" fill="#5141D9"/>
<path d="M 49.69,21.52 C 48.82,21.52 48.16,22.18 47.79,23.05 L 38.96,40.47 L 37.07,36.65 C 36.92,36.34 36.61,36.44 36.46,36.65 C 35.69,37.32 34.92,37.73 34.26,37.88 C 33.85,37.93 33.75,38.39 33.9,38.75 L 36.92,45.12 C 37.28,46.14 38.04,46.5 38.96,46.5 C 39.78,46.5 40.49,46.04 40.75,45.17 L 47.74,31.28 V 35.42 L 47.69,35.78 V 46.6 L 47.74,46.91 V 54.09 L 41.82,48.07 L 39.06,51.1 L 49.79,61.36 L 60.42,51.05 L 57.71,48.02 L 51.79,54.09 V 24.07 C 51.79,22.74 50.87,21.52 49.69,21.52 Z" fill="#EEEEF0"/>
<path d="M 38.25,21.52 C 38.86,19.28 37.89,16.21 37.48,15.39 C 37.02,14.42 35.79,14.47 34.82,14.63 C 33.44,14.93 31.91,15.85 31.15,16.51 C 29.92,16.16 28.54,16.05 26.91,16.05 C 25.38,16.05 23.95,16.16 22.62,16.62 C 21.45,15.85 19.46,14.63 17.52,14.58 C 16.45,14.52 15.78,14.68 15.43,15.6 C 14.82,17.02 14.26,19.53 14.66,21.52 C 14.72,21.67 14.56,21.77 14.51,21.93 C 13.54,23.81 13.18,25.6 13.18,27.39 C 13.29,32.25 16.35,36.24 20.58,37.26 L 20.53,37.32 C 20.63,37.37 20.58,37.32 20.73,37.37 C 20.58,37.83 20.43,38.44 20.38,39.05 C 19.71,39.36 18.23,39.36 17.72,38.8 C 16.91,36.7 15.48,35.22 13.64,34.87 C 11.81,34.51 11.04,37.42 12.67,38.14 C 13.74,38.49 14.36,39.21 14.82,40.38 C 15.12,41.09 17.06,42.62 18.85,42.57 C 19.41,42.57 19.92,42.52 20.17,42.42 V 46.3 C 20.17,47.26 21.04,47.87 21.81,47.87 C 22.88,47.87 23.69,47.16 23.64,46.14 V 42.92 L 23.7,42.62 V 41.14 C 23.7,39.72 23.95,38.39 24.87,37.42 C 25.74,36.34 25.38,34.66 23.85,34.66 C 21.35,34.51 18.08,33.85 16.91,30.42 C 15.84,27.61 16.6,24.99 18.03,23.15 C 18.39,22.74 18.49,22.23 18.28,21.62 C 17.93,20.45 17.93,18.92 18.08,17.95 C 18.95,17.95 20.89,19.38 21.45,19.94 C 21.86,20.35 22.47,20.5 23.08,20.29 C 24.26,19.79 25.58,19.58 27.11,19.63 C 28.44,19.58 29.62,19.79 30.79,20.14 C 31.4,20.35 31.86,20.24 32.27,19.84 C 33.19,19.02 34.72,17.95 35.23,17.8 C 35.48,18.82 35.23,20.55 34.92,21.62 C 34.77,22.13 34.98,22.64 35.33,23.05 C 36.41,24.47 36.82,26.21 36.66,28.05 C 36.15,32.35 33.34,34.66 29.97,34.81 V 31.28 L 31.15,33.64 C 32.52,33.33 33.85,32.05 34.67,31.18 L 30.64,22.95 C 30.23,21.82 29.41,21.47 28.65,21.52 C 27.42,21.52 26.55,22.69 26.6,23.76 V 48.84 C 26.55,49.96 27.47,50.88 28.59,50.83 C 29.92,50.88 30.48,49.66 30.38,48.79 H 30.48 V 45.73 L 30.43,45.43 V 41.6 L 30.38,41.34 V 37.93 C 36.15,37.68 39.73,33.13 40.08,27.9 C 40.13,25.75 39.42,23.35 38.25,21.52 Z" fill="#EEEEF0"/>
</svg>